<svg xmlns="http://www.w3.org/2000/svg" viewBox="0 0 32 32">
  <rect width="32" height="32" fill="#050505"/>
  <defs>
    <linearGradient id="beam" x1="32" y1="0" x2="6" y2="32" gradientUnits="userSpaceOnUse">
      <stop offset="0%" stop-color="#fff" stop-opacity="0.9"/>
      <stop offset="55%" stop-color="#fff" stop-opacity="0.35"/>
      <stop offset="100%" stop-color="#fff" stop-opacity="0.06"/>
    </linearGradient>
    <radialGradient id="pool" cx="9" cy="29" r="7" gradientUnits="userSpaceOnUse">
      <stop offset="0%" stop-color="#fff" stop-opacity="0.6"/>
      <stop offset="100%" stop-color="#fff" stop-opacity="0"/>
    </radialGradient>
    <radialGradient id="glow" cx="28" cy="4" r="7" gradientUnits="userSpaceOnUse">
      <stop offset="0%" stop-color="#fff"/>
      <stop offset="45%" stop-color="#fff" stop-opacity="0.35"/>
      <stop offset="100%" stop-color="#fff" stop-opacity="0"/>
    </radialGradient>
  </defs>
  <polygon points="32,0 32,16 7,32 0,32" fill="url(#beam)"/>
  <ellipse cx="9" cy="29" rx="7" ry="2.2" fill="url(#pool)"/>
  <path fill="#050505" d="M8.2 20.8c.3-.5.9-.5 1.2 0l.2.4c.4.2.7.6.8 1l.2 1.6c0 .4-.3.8-.8.9H7.8c-.5 0-.8-.3-.8-.8l.2-1.7c.1-.4.4-.7.8-.9l.2-.5z"/>
  <circle cx="28" cy="4" r="6" fill="url(#glow)"/>
  <circle cx="28" cy="4" r="2.4" fill="#fff"/>
</svg>
